<svg xmlns="http://www.w3.org/2000/svg" width="16" height="16" viewBox="0 0 16 16" fill="currentColor">
  <path d="M3.5 2a.5.5 0 0 0-.5.5v2a.5.5 0 0 0 1 0V3h1.5a.5.5 0 0 0 0-1h-2zm9 0a.5.5 0 0 0-.5.5V3h-1.5a.5.5 0 0 0 0 1H12v1.5a.5.5 0 0 0 1 0v-2a.5.5 0 0 0-.5-.5zM6.5 12a.5.5 0 0 0 0 1h2a.5.5 0 0 0 0-1h-1.5V11.5a.5.5 0 0 0-1 0V12zm-3-1.5a.5.5 0 0 0-1 0v2a.5.5 0 0 0 .5.5h2a.5.5 0 0 0 0-1H3.5v-1.5zm10 0a.5.5 0 0 0-1 0V12h-1.5a.5.5 0 0 0 0 1h2a.5.5 0 0 0 .5-.5v-2zm-6-5h3a.5.5 0 0 1 .5.5v3a.5.5 0 0 1-.5.5h-3a.5.5 0 0 1-.5-.5v-3a.5.5 0 0 1 .5-.5z"/>
</svg>