<svg xmlns="http://www.w3.org/2000/svg" width="16" height="16" viewBox="0 0 16 16" fill="currentColor">
  <path d="M11 1.5a.5.5 0 0 1 .5.5V4h1.5a.5.5 0 0 1 0 1H11.5v1.5a.5.5 0 0 1-1 0V5H9a.5.5 0 0 1 0-1h1.5V2a.5.5 0 0 1 .5-.5z"/>
  <path d="M4.5 14.5a.5.5 0 0 1-.5-.5v-1.5H2.5a.5.5 0 0 1 0-1H4V10a.5.5 0 0 1 1 0v1.5h1.5a.5.5 0 0 1 0 1H5V14a.5.5 0 0 1-.5.5z"/>
  <path d="M2 7a.5.5 0 0 1 .5-.5h1.5V5a.5.5 0 0 1 1 0v1.5h1.5a.5.5 0 0 1 0 1H5V9a.5.5 0 0 1-1 0V7.5H2.5A.5.5 0 0 1 2 7z"/>
  <path d="M8.5 9.5a.5.5 0 0 1 .5-.5h1.5V7.5a.5.5 0 0 1 1 0V9h1.5a.5.5 0 0 1 0 1H11.5v1.5a.5.5 0 0 1-1 0V10H9a.5.5 0 0 1-.5-.5z"/>
  <path d="M7 7.5a.5.5 0 0 0 0 1h.5V9a.5.5 0 0 0 1 0V7.5z"/>
</svg>
