<svg xmlns="http://www.w3.org/2000/svg" width="16" height="16" viewBox="0 0 16 16">
  <rect x="0.5" y="0.5" width="15" height="15" rx="2" fill="#e6f0ff" stroke="#004282" stroke-width="0.5"/>
  <g fill="#004282">
    <path d="M2 2.5a.5.5 0 0 1 .5-.5h3a.5.5 0 0 1 0 1H3v2.5a.5.5 0 0 1-1 0v-3zM14 2.5v3a.5.5 0 0 1-1 0V3h-2.5a.5.5 0 0 1 0-1h3a.5.5 0 0 1 .5.5zM2 13.5v-3a.5.5 0 0 1 1 0V13h2.5a.5.5 0 0 1 0 1h-3a.5.5 0 0 1-.5-.5zM14 13.5a.5.5 0 0 1-.5.5h-3a.5.5 0 0 1 0-1H13v-2.5a.5.5 0 0 1 1 0v3z"/>
  </g>
</svg>