<svg xmlns="http://www.w3.org/2000/svg" width="16" height="16" viewBox="0 0 16 16">
  <rect x="0.5" y="0.5" width="15" height="15" rx="2" fill="#e6f0ff" stroke="#004282" stroke-width="0.5"/>
  <g fill="#004282">
    <path d="M4 1a1.5 1.5 0 0 0-1.5 1.5V4h9V2.5A1.5 1.5 0 0 0 10 1H4zm9.5 4H2.5A1.5 1.5 0 0 0 1 6.5v3A1.5 1.5 0 0 0 2.5 11H4v-1.5A1.5 1.5 0 0 1 5.5 8h5A1.5 1.5 0 0 1 12 9.5V11h1.5A1.5 1.5 0 0 0 15 9.5v-3A1.5 1.5 0 0 0 13.5 5z"/>
    <rect x="5.5" y="9" width="5" height="4" rx="0.5" fill="none" stroke="#004282" stroke-width="0.6"/>
    <line x1="7" y1="10" x2="9" y2="10" stroke="#004282" stroke-width="0.5"/>
    <line x1="7" y1="11.5" x2="9" y2="11.5" stroke="#004282" stroke-width="0.5"/>
  </g>
</svg>