<svg xmlns="http://www.w3.org/2000/svg" width="16" height="16" viewBox="0 0 16 16">
  <rect x="0.5" y="0.5" width="15" height="15" rx="2" fill="#e6f0ff" stroke="#004282" stroke-width="0.5"/>
  <g fill="#004282">
    <path d="M6 4a2 2 0 0 0-2 2v4a2 2 0 0 0 2 2h4a2 2 0 0 0 2-2V6a2 2 0 0 0-2-2H6zm0 1.5h4a.5.5 0 0 1 .5.5v4a.5.5 0 0 1-.5.5H6a.5.5 0 0 1-.5-.5V6a.5.5 0 0 1 .5-.5z"/>
    <circle cx="11.5" cy="4.5" r="2.5" fill="none" stroke="#004282" stroke-width="0.6"/>
    <path d="M12.5 3.5L14 2" stroke="#004282" stroke-width="0.6" stroke-linecap="round"/>
  </g>
</svg>